<svg xmlns="http://www.w3.org/2000/svg" width="300.464" height="51.968" viewBox="0 0 300.464 51.968">
  <path id="Path_10" data-name="Path 10" d="M8.624-34.16v-5.824H3.864v5.824Zm0,37.8V-28.952H3.864V2.856A6.138,6.138,0,0,1,3.3,5.964a2.344,2.344,0,0,1-2.128.868H.168A2.974,2.974,0,0,1-.252,6.8q-.2-.028-.476-.084v4.088a12.275,12.275,0,0,0,2.408.224A7.1,7.1,0,0,0,6.748,9.268Q8.624,7.5,8.624,3.64ZM19.488-14.448a14.4,14.4,0,0,1,.7-4.676,10.091,10.091,0,0,1,1.932-3.444A8.227,8.227,0,0,1,25-24.7a8.584,8.584,0,0,1,3.5-.728A8.584,8.584,0,0,1,32-24.7a8.227,8.227,0,0,1,2.884,2.128,10.091,10.091,0,0,1,1.932,3.444,14.4,14.4,0,0,1,.7,4.676,14.4,14.4,0,0,1-.7,4.676,9.783,9.783,0,0,1-1.932,3.416A8.384,8.384,0,0,1,32-4.256a8.584,8.584,0,0,1-3.5.728A8.584,8.584,0,0,1,25-4.256a8.384,8.384,0,0,1-2.884-2.1,9.783,9.783,0,0,1-1.932-3.416A14.4,14.4,0,0,1,19.488-14.448Zm-5.04,0a19.018,19.018,0,0,0,.9,5.936,13.55,13.55,0,0,0,2.688,4.788A12.366,12.366,0,0,0,22.456-.532,15,15,0,0,0,28.5.616,14.952,14.952,0,0,0,34.58-.532a12.424,12.424,0,0,0,4.4-3.192,13.55,13.55,0,0,0,2.688-4.788,19.018,19.018,0,0,0,.9-5.936,19.283,19.283,0,0,0-.9-5.964,13.513,13.513,0,0,0-2.688-4.816,12.727,12.727,0,0,0-4.4-3.22A14.642,14.642,0,0,0,28.5-29.624a14.691,14.691,0,0,0-6.048,1.176,12.662,12.662,0,0,0-4.424,3.22,13.513,13.513,0,0,0-2.688,4.816A19.283,19.283,0,0,0,14.448-14.448ZM61.88-37.576v-3.36H57.96a5.173,5.173,0,0,0-2.128.476,6.014,6.014,0,0,0-1.932,1.4,7.388,7.388,0,0,0-1.428,2.3,8.323,8.323,0,0,0-.56,3.164v10.192a8.824,8.824,0,0,1-.392,2.688,7.117,7.117,0,0,1-1.036,2.1A4.8,4.8,0,0,1,49-17.276a3.477,3.477,0,0,1-1.736.476v3.808A3.644,3.644,0,0,1,49-12.544a4.6,4.6,0,0,1,1.484,1.288A6.729,6.729,0,0,1,51.52-9.184a9.022,9.022,0,0,1,.392,2.744V3.7a8.323,8.323,0,0,0,.56,3.164,7.389,7.389,0,0,0,1.428,2.3,6.014,6.014,0,0,0,1.932,1.4,5.173,5.173,0,0,0,2.128.476h3.92V7.672h-2.8a2.032,2.032,0,0,1-1.344-.42,3,3,0,0,1-.812-1.12,5.682,5.682,0,0,1-.42-1.568,13.339,13.339,0,0,1-.112-1.708V-7.336a9.161,9.161,0,0,0-.588-3.528,7.95,7.95,0,0,0-1.372-2.268,5.314,5.314,0,0,0-1.6-1.26,4.353,4.353,0,0,0-1.316-.448v-.168a5.334,5.334,0,0,0,1.316-.56,6.055,6.055,0,0,0,1.6-1.344A8.508,8.508,0,0,0,55.8-19.18a8.447,8.447,0,0,0,.588-3.332V-32.76a13.771,13.771,0,0,1,.112-1.764,5.314,5.314,0,0,1,.42-1.54,3.045,3.045,0,0,1,.812-1.092,2.032,2.032,0,0,1,1.344-.42Zm24.584,17.92h4.928a11.442,11.442,0,0,0-1.344-4.452,9.937,9.937,0,0,0-2.716-3.108,11.251,11.251,0,0,0-3.808-1.82,17.5,17.5,0,0,0-4.62-.588,14.014,14.014,0,0,0-5.992,1.2,11.959,11.959,0,0,0-4.284,3.3,14.053,14.053,0,0,0-2.548,4.928,21.245,21.245,0,0,0-.84,6.076,19.508,19.508,0,0,0,.868,5.964,13.079,13.079,0,0,0,2.576,4.676A11.349,11.349,0,0,0,72.94-.448,15.08,15.08,0,0,0,78.792.616q5.544,0,8.764-2.912a13.333,13.333,0,0,0,4-8.288H86.688a8.345,8.345,0,0,1-2.436,5.208,7.79,7.79,0,0,1-5.516,1.848,7.881,7.881,0,0,1-3.864-.9A7.519,7.519,0,0,1,72.24-6.8a10.507,10.507,0,0,1-1.484-3.388,16.1,16.1,0,0,1-.476-3.92,19.693,19.693,0,0,1,.448-4.228,10.6,10.6,0,0,1,1.484-3.612,7.687,7.687,0,0,1,2.772-2.52,8.876,8.876,0,0,1,4.312-.952,7.225,7.225,0,0,1,4.816,1.512A7.255,7.255,0,0,1,86.464-19.656Zm13.888,5.208a14.4,14.4,0,0,1,.7-4.676,10.091,10.091,0,0,1,1.932-3.444,8.227,8.227,0,0,1,2.884-2.128,8.584,8.584,0,0,1,3.5-.728,8.584,8.584,0,0,1,3.5.728,8.227,8.227,0,0,1,2.884,2.128,10.091,10.091,0,0,1,1.932,3.444,14.4,14.4,0,0,1,.7,4.676,14.4,14.4,0,0,1-.7,4.676,9.783,9.783,0,0,1-1.932,3.416,8.384,8.384,0,0,1-2.884,2.1,8.584,8.584,0,0,1-3.5.728,8.584,8.584,0,0,1-3.5-.728,8.384,8.384,0,0,1-2.884-2.1,9.783,9.783,0,0,1-1.932-3.416A14.4,14.4,0,0,1,100.352-14.448Zm-5.04,0a19.018,19.018,0,0,0,.9,5.936A13.55,13.55,0,0,0,98.9-3.724,12.366,12.366,0,0,0,103.32-.532,15,15,0,0,0,109.368.616a14.952,14.952,0,0,0,6.076-1.148,12.424,12.424,0,0,0,4.4-3.192,13.55,13.55,0,0,0,2.688-4.788,19.018,19.018,0,0,0,.9-5.936,19.283,19.283,0,0,0-.9-5.964,13.513,13.513,0,0,0-2.688-4.816,12.727,12.727,0,0,0-4.4-3.22,14.642,14.642,0,0,0-6.076-1.176,14.691,14.691,0,0,0-6.048,1.176,12.662,12.662,0,0,0-4.424,3.22,13.513,13.513,0,0,0-2.688,4.816A19.283,19.283,0,0,0,95.312-14.448Zm37.184.224a19.046,19.046,0,0,1,.448-4.144,10.963,10.963,0,0,1,1.456-3.584,7.58,7.58,0,0,1,2.688-2.52,8.174,8.174,0,0,1,4.088-.952,8.835,8.835,0,0,1,4.2.924,8.152,8.152,0,0,1,2.828,2.436,10.186,10.186,0,0,1,1.6,3.5,16.684,16.684,0,0,1,.5,4.116,16.788,16.788,0,0,1-.476,3.976,10.42,10.42,0,0,1-1.54,3.5,8.193,8.193,0,0,1-2.744,2.492,8.174,8.174,0,0,1-4.088.952,8.5,8.5,0,0,1-4-.9,7.958,7.958,0,0,1-2.8-2.408,10.655,10.655,0,0,1-1.624-3.444A14.8,14.8,0,0,1,132.5-14.224ZM154.9,0V-39.984h-4.76v14.9h-.112a7.668,7.668,0,0,0-1.932-2.156,10.976,10.976,0,0,0-2.436-1.4,12.227,12.227,0,0,0-2.576-.756,14.1,14.1,0,0,0-2.408-.224,13.178,13.178,0,0,0-5.8,1.2,11.9,11.9,0,0,0-4.144,3.248,13.712,13.712,0,0,0-2.464,4.788,20.425,20.425,0,0,0-.812,5.824,19.791,19.791,0,0,0,.84,5.824,14.4,14.4,0,0,0,2.492,4.816,12.043,12.043,0,0,0,4.144,3.3A13.059,13.059,0,0,0,140.784.616a14.111,14.111,0,0,0,5.544-1.064,7.005,7.005,0,0,0,3.7-3.472h.112V0Zm27.44-17.248H165.7a9.915,9.915,0,0,1,.728-3.164,8.439,8.439,0,0,1,1.68-2.6,7.7,7.7,0,0,1,2.548-1.764,8.288,8.288,0,0,1,3.332-.644,8.143,8.143,0,0,1,3.276.644,8.242,8.242,0,0,1,2.576,1.736,8.159,8.159,0,0,1,1.736,2.6A9.739,9.739,0,0,1,182.336-17.248Zm4.592,8.064h-4.7a6.769,6.769,0,0,1-2.548,4.256,8.239,8.239,0,0,1-4.956,1.4,9.86,9.86,0,0,1-4.088-.784,8.012,8.012,0,0,1-2.856-2.1,8.181,8.181,0,0,1-1.624-3.024,11.492,11.492,0,0,1-.448-3.612h21.672a23.05,23.05,0,0,0-.476-5.544,16.049,16.049,0,0,0-2.128-5.376,12.68,12.68,0,0,0-4.088-4.06,11.877,11.877,0,0,0-6.412-1.6,13.165,13.165,0,0,0-5.46,1.12,12.832,12.832,0,0,0-4.312,3.136,14.454,14.454,0,0,0-2.828,4.76,17.422,17.422,0,0,0-1.008,6.048,23.208,23.208,0,0,0,.98,6.1,13.322,13.322,0,0,0,2.6,4.816A11.868,11.868,0,0,0,168.532-.5a14.872,14.872,0,0,0,6.02,1.12,13.142,13.142,0,0,0,8.176-2.464A11.569,11.569,0,0,0,186.928-9.184Zm3.136,16.856v3.36h3.92a5.173,5.173,0,0,0,2.128-.476,6.014,6.014,0,0,0,1.932-1.4,7.389,7.389,0,0,0,1.428-2.3,8.323,8.323,0,0,0,.56-3.164V-6.44a8.556,8.556,0,0,1,.392-2.66,7.178,7.178,0,0,1,1.036-2.072,4.8,4.8,0,0,1,1.484-1.344,3.477,3.477,0,0,1,1.736-.476V-16.8a3.644,3.644,0,0,1-1.736-.448,4.478,4.478,0,0,1-1.484-1.316,7.117,7.117,0,0,1-1.036-2.1,9.022,9.022,0,0,1-.392-2.744V-33.6a8.323,8.323,0,0,0-.56-3.164,7.389,7.389,0,0,0-1.428-2.3,6.014,6.014,0,0,0-1.932-1.4,5.173,5.173,0,0,0-2.128-.476h-3.92v3.36h2.8a2.032,2.032,0,0,1,1.344.42,3,3,0,0,1,.812,1.12,5.682,5.682,0,0,1,.42,1.568,14.225,14.225,0,0,1,.112,1.82v10.136a9.161,9.161,0,0,0,.588,3.528,7.95,7.95,0,0,0,1.372,2.268,5.314,5.314,0,0,0,1.6,1.26,4.353,4.353,0,0,0,1.316.448v.168a5.334,5.334,0,0,0-1.316.56,6.055,6.055,0,0,0-1.6,1.344,8.508,8.508,0,0,0-1.372,2.268,8.447,8.447,0,0,0-.588,3.332V2.856a13.772,13.772,0,0,1-.112,1.764,5.314,5.314,0,0,1-.42,1.54,3.045,3.045,0,0,1-.812,1.092,2.032,2.032,0,0,1-1.344.42Z" transform="translate(0.728 40.936)" fill="#fff"/>
  <path id="Path_11" data-name="Path 11" d="M4.648-6.216V0h6.216V-6.216Zm14.5-22.736V0h4.76V-16.352a11.728,11.728,0,0,1,.532-3.612,8.2,8.2,0,0,1,1.6-2.884,7.088,7.088,0,0,1,2.66-1.9,9.7,9.7,0,0,1,3.78-.672,5.827,5.827,0,0,1,4.312,1.568A5.751,5.751,0,0,1,38.36-19.6V0h4.76V-19.04a17.916,17.916,0,0,0-.476-4.284,8.113,8.113,0,0,0-1.652-3.332,7.826,7.826,0,0,0-3.08-2.184,12.564,12.564,0,0,0-4.76-.784q-6.44,0-9.408,5.264h-.112v-4.592Zm51.24,11.7H53.76a9.915,9.915,0,0,1,.728-3.164,8.439,8.439,0,0,1,1.68-2.6,7.7,7.7,0,0,1,2.548-1.764,8.288,8.288,0,0,1,3.332-.644,8.143,8.143,0,0,1,3.276.644A8.242,8.242,0,0,1,67.9-23.044a8.159,8.159,0,0,1,1.736,2.6A9.739,9.739,0,0,1,70.392-17.248Zm4.592,8.064h-4.7a6.769,6.769,0,0,1-2.548,4.256,8.239,8.239,0,0,1-4.956,1.4,9.86,9.86,0,0,1-4.088-.784,8.012,8.012,0,0,1-2.856-2.1,8.181,8.181,0,0,1-1.624-3.024,11.492,11.492,0,0,1-.448-3.612H75.432a23.05,23.05,0,0,0-.476-5.544,16.049,16.049,0,0,0-2.128-5.376,12.68,12.68,0,0,0-4.088-4.06,11.877,11.877,0,0,0-6.412-1.6,13.165,13.165,0,0,0-5.46,1.12,12.832,12.832,0,0,0-4.312,3.136,14.454,14.454,0,0,0-2.828,4.76A17.422,17.422,0,0,0,48.72-14.56a23.208,23.208,0,0,0,.98,6.1A13.322,13.322,0,0,0,52.3-3.64,11.868,11.868,0,0,0,56.588-.5a14.872,14.872,0,0,0,6.02,1.12,13.142,13.142,0,0,0,8.176-2.464A11.569,11.569,0,0,0,74.984-9.184ZM86.968-28.952v-8.68h-4.76v8.68H77.28v4.2h4.928V-6.328A11,11,0,0,0,82.6-3.08a3.949,3.949,0,0,0,1.2,1.9,4.648,4.648,0,0,0,2.128.924A17.092,17.092,0,0,0,89.1,0h3.64V-4.2H90.552a15.875,15.875,0,0,1-1.82-.084,2.351,2.351,0,0,1-1.092-.364,1.384,1.384,0,0,1-.532-.784,5.194,5.194,0,0,1-.14-1.344V-24.752h5.768v-4.2Z" transform="translate(207.728 40.936)" fill="#fe8d18"/>
</svg>
